PathFileType	4	(X/Y/Z)	E:\Qualisys_Data\Carbon_Farble_Plate\Data\Amateur_Runner\S1\T3\S1T3V12_c3d.trc
DataRate	CameraRate	NumFrames	NumMarkers	Units	OrigDataRate	OrigDataStartFrame	OrigNumFrames
200.000000	200.000000	4	39	mm	200.000000	201	322
Frame#	Time	LSHO			RSHO			LICST			RICST			LASIS			LHEEL			RASIS			LTROC			RTROC			SACR			LTH1			LSK4			LTH2			LTH3			RHM5			LSK2			LTH4			RTH1			LTOE			RTH2			RTH3			RTH4			LLEP			RLEP			LSK1			LSK3			RSK1			LHM5			RSK2			LFT1			RSK3			RSK4			LLME			RLME			RTOE			RHEEL			RFT1			RFT2			LFT2			
		X1	Y1	Z1	X2	Y2	Z2	X3	Y3	Z3	X4	Y4	Z4	X5	Y5	Z5	X6	Y6	Z6	X7	Y7	Z7	X8	Y8	Z8	X9	Y9	Z9	X10	Y10	Z10	X11	Y11	Z11	X12	Y12	Z12	X13	Y13	Z13	X14	Y14	Z14	X15	Y15	Z15	X16	Y16	Z16	X17	Y17	Z17	X18	Y18	Z18	X19	Y19	Z19	X20	Y20	Z20	X21	Y21	Z21	X22	Y22	Z22	X23	Y23	Z23	X24	Y24	Z24	X25	Y25	Z25	X26	Y26	Z26	X27	Y27	Z27	X28	Y28	Z28	X29	Y29	Z29	X30	Y30	Z30	X31	Y31	Z31	X32	Y32	Z32	X33	Y33	Z33	X34	Y34	Z34	X35	Y35	Z35	X36	Y36	Z36	X37	Y37	Z37	X38	Y38	Z38	X39	Y39	Z39	

202	1.005	701.8585815429688	1510.637817382812	-474.9224548339844	733.952392578125	1485.956298828125	-147.4091644287109	679.6539916992188	1041.429077148438	-454.7208251953125	690.371826171875	1050.496215820312	-154.9123992919922	724.5146484375	1005.3134765625	-429.575439453125	575.9825439453125	238.2539672851562	-356.5048522949219	727.0077514648438	1000.646911621094	-165.3197631835938	636.6088256835938	917.778076171875	-477.2416381835938	609.4723510742188	918.8444213867188	-138.3848876953125	566.7855224609375	1062.094848632812	-298.6537170410156	820.6256713867188	835.7959594726562	-441.0950622558594	668.1984252929688	368.5304260253906	-388.1223449707031	757.6091918945312	789.71435546875	-477.2662048339844	875.6420288085938	747.7174072265625	-431.6343078613281	474.0718994140625	63.8087158203125	-185.8930053710938	727.3820190429688	445.5446166992188	-425.8365478515625	806.775390625	703.2418823242188	-458.4118347167969	719.4617919921875	774.4307250976562	-165.1160278320312	792.9024047851562	111.5157623291016	-362.4691467285156	645.0032348632812	781.8257446289062	-135.1595153808594	703.99658203125	674.740234375	-178.1731719970703	626.4136352539062	685.3358764648438	-155.2633361816406	890.1646728515625	582.5768432617188	-423.6640625	622.8184204101562	515.138916015625	-199.6790618896484	792.76513671875	392.2834777832031	-421.03759765625	725.8421020507812	317.1413269042969	-413.6498413085938	527.8252563476562	348.0221557617188	-184.9932250976562	719.4340209960938	123.4339904785156	-419.6212158203125	458.2482604980469	390.0369567871094	-188.7698516845703	571.8006591796875	210.4569396972656	-324.8438110351562	477.7930603027344	261.6698608398438	-196.4636535644531	410.1194458007812	304.2388610839844	-212.8507537841797	635.1026611328125	237.4030303955078	-404.1530456542969	381.1332092285156	169.4775695800781	-195.0718994140625	527.042236328125	57.07027053833008	-257.9288635253906	294.472412109375	147.0315856933594	-236.4957427978516	294.6394348144531	118.8233032226562	-265.4845275878906	290.0293884277344	123.7473297119141	-213.9761352539062	564.4837036132812	206.9633636474609	-375.8411865234375
203	1.01	715.9113159179688	1514.4541015625	-475.6322631835938	751.0999145507812	1490.533447265625	-148.9321594238281	696.08154296875	1045.884887695312	-454.9803771972656	708.3895263671875	1053.365356445312	-156.6543884277344	746.5310668945312	1008.699279785156	-429.1214904785156	606.7450561523438	228.3060607910156	-355.8599853515625	744.44140625	1003.807434082031	-165.6855010986328	653.4483642578125	922.532958984375	-477.9595336914062	625.8825073242188	922.6864013671876	-139.0972290039062	584.0663452148438	1065.806884765625	-298.5088500976562	838.2653198242188	840.3367309570312	-440.4181518554688	693.02099609375	362.4845581054688	-387.3900756835938	775.0977172851562	794.3500366210938	-476.9120178222656	892.59521484375	752.1170043945312	-430.5643005371094	476.4418029785156	64.75133514404297	-185.3993682861328	748.8595581054688	442.2125854492188	-425.9132995605469	823.8992309570312	707.7236938476562	-457.7015075683594	733.7554321289062	776.909423828125	-165.7990417480469	828.6626586914062	110.7762069702148	-362.4275512695312	659.0601196289062	786.0314331054688	-135.4952087402344	715.9671630859375	677.8685302734375	-178.9334259033203	638.8192138671875	689.7553100585938	-155.8657836914062	906.1796264648438	586.2074584960938	-423.0797424316406	631.9641723632812	519.5387573242188	-200.2369842529297	816.2217407226562	391.9927673339844	-420.4869384765625	752.8831176757812	313.8672790527344	-413.0280151367188	534.4744873046875	352.25048828125	-183.8289642333984	754.53857421875	119.6041946411133	-419.1294555664062	465.5879516601562	395.7485656738281	-188.6695709228516	603.7854614257812	200.1911315917969	-324.6080322265625	484.5000915527344	267.3465881347656	-195.4383239746094	416.9749755859375	310.3556518554688	-212.2880096435547	665.6575927734375	230.0235290527344	-404.0806884765625	386.9738464355469	174.7315979003906	-193.4606018066406	528.7412719726562	56.47161102294922	-257.5745239257812	299.048095703125	153.3498687744141	-236.7242431640625	298.8700561523438	124.9139785766602	-265.4555053710938	293.8682556152344	130.1702575683594	-214.2958984375	597.3146362304688	196.2654876708984	-374.9889221191406
204	1.015	730.3089599609375	1517.9326171875	-476.5748291015625	768.0477905273438	1495.26318359375	-149.8547668457031	712.6134033203125	1050.13134765625	-455.5214233398438	725.830078125	1057.034057617188	-157.8518676757812	763.2236938476562	1012.709411621094	-429.5638427734375	638.0709838867188	218.88671875	-355.2306518554688	761.4318237304688	1006.6201171875	-166.6360168457031	670.367919921875	926.974365234375	-478.390869140625	642.4171752929688	926.8607177734376	-139.5698089599609	601.513916015625	1070.055786132812	-298.8827819824219	855.408447265625	844.6362915039062	-439.8233947753906	718.1032104492188	356.5814514160156	-386.8701782226562	792.3331909179688	798.5999755859375	-476.327392578125	909.4511108398438	756.1206665039062	-429.52197265625	478.2967529296875	65.27738189697266	-184.7414245605469	769.9066772460938	438.6459655761719	-425.9585266113281	840.6616821289062	711.9176635742188	-456.8229370117188	747.3673706054688	779.694091796875	-166.3602752685547	864.369384765625	110.7003479003906	-362.1105041503906	673.1854248046875	790.0407104492188	-136.1689147949219	728.2337036132812	680.9598999023438	-179.3589172363281	651.2931518554688	694.27294921875	-156.1471405029297	922.1550903320312	589.505859375	-422.42919921875	641.5693969726562	523.820068359375	-199.9943542480469	840.0093994140625	391.4402770996094	-420.3445129394531	779.7769775390625	310.6031188964844	-412.7318725585938	542.66943359375	358.8672180175781	-183.4102630615234	790.3667602539062	116.5249252319336	-419.1968994140625	473.6277160644531	401.3839721679688	-188.1218566894531	636.1875	190.1006622314453	-324.2948303222656	492.02783203125	272.7084655761719	-194.4635009765625	424.3030395507812	316.1778869628906	-211.7026977539062	696.8311157226562	222.5651550292969	-403.5463256835938	393.1899108886719	179.8856048583984	-193.6553649902344	530.0855102539062	55.85662078857422	-257.2087707519531	304.6509704589844	160.8468475341797	-236.3383483886719	303.7174072265625	132.4240112304688	-265.3876647949219	298.9766845703125	137.8151245117188	-213.9964294433594	629.4862060546875	186.1767883300781	-374.6698303222656
205	1.02	744.6680908203125	1521.165771484375	-477.0989074707031	785.20068359375	1499.661254882812	-151.3592071533203	730.1939086914062	1054.107788085938	-455.4199829101562	743.7752075195312	1059.865112304688	-157.5924072265625	779.700927734375	1016.256958007812	-430.3219299316406	669.3325805664062	209.2980804443359	-354.7143859863281	778.8355712890625	1009.682373046875	-167.2513427734375	687.0955200195312	930.6825561523438	-478.731201171875	659.0087890625	930.825439453125	-139.9824676513672	619.1753540039062	1073.617919921875	-298.8261108398438	872.3948364257812	848.0772094726562	-439.3298034667969	743.146484375	351.0973205566406	-386.1028747558594	809.3429565429688	802.5587158203125	-476.1040649414062	925.9874877929688	759.692626953125	-428.8690185546875	480.9387817382812	66.42977142333984	-183.9942169189453	791.7611083984375	435.6170654296875	-426.2910766601562	857.0672607421875	715.9662475585938	-455.8104858398438	761.6588134765625	782.2138061523438	-166.5667724609375	900.3075561523438	110.9997863769531	-362.1171569824219	687.7589111328125	793.8992919921875	-136.3529052734375	740.6257934570312	684.2941284179688	-178.728759765625	664.3688354492188	698.6488037109375	-156.1531677246094	937.8587036132812	592.6766967773438	-422.0221862792969	650.6051025390625	528.2100830078125	-199.7880249023438	863.35400390625	390.9535827636719	-419.937255859375	806.5598754882812	307.2916259765625	-412.5452270507812	550.3416748046875	364.4051818847656	-182.3070068359375	825.6861572265625	113.4812850952148	-418.8938903808594	481.1786499023438	407.2607727050781	-187.6225433349609	668.68994140625	180.6195983886719	-323.5750732421875	499.1084899902344	278.2121276855469	-192.9719848632812	431.9576721191406	321.9525146484375	-211.3467864990234	727.4096069335938	215.6307983398438	-403.2121276855469	399.7997131347656	185.1059875488281	-192.4041595458984	531.8219604492188	55.24978637695312	-256.8348388671875	313.6675415039062	169.4222869873047	-236.0003967285156	309.6268310546875	141.0041198730469	-266.2260131835938	304.7506713867188	146.0605163574219	-214.0675506591797	662.0479125976562	176.1466064453125	-374.2249755859375
